<svg xmlns="http://www.w3.org/2000/svg" xmlns:xlink="http://www.w3.org/1999/xlink" width="500" zoomAndPan="magnify" viewBox="0 0 375 374.999991" height="500" preserveAspectRatio="xMidYMid meet" version="1.0"><defs><clipPath id="cd2678a928"><path d="M 82.679688 82.679688 L 292.320312 82.679688 L 292.320312 292.320312 L 82.679688 292.320312 Z M 82.679688 82.679688 " clip-rule="nonzero"/></clipPath><clipPath id="4b9c442509"><path d="M 187.5 82.679688 C 129.609375 82.679688 82.679688 129.609375 82.679688 187.5 C 82.679688 245.390625 129.609375 292.320312 187.5 292.320312 C 245.390625 292.320312 292.320312 245.390625 292.320312 187.5 C 292.320312 129.609375 245.390625 82.679688 187.5 82.679688 Z M 187.5 82.679688 " clip-rule="nonzero"/></clipPath><clipPath id="2b50db7e80"><path d="M 82.679688 82.679688 L 292.679688 82.679688 L 292.679688 292.679688 L 82.679688 292.679688 Z M 82.679688 82.679688 " clip-rule="nonzero"/></clipPath></defs><g clip-path="url(#cd2678a928)"><g clip-path="url(#4b9c442509)"><path fill="#ffffff" d="M 82.679688 82.679688 L 292.320312 82.679688 L 292.320312 292.320312 L 82.679688 292.320312 Z M 82.679688 82.679688 " fill-opacity="1" fill-rule="nonzero"/></g></g><g clip-path="url(#2b50db7e80)"><path fill="#000000" d="M 187.679688 82.679688 C 129.929688 82.679688 82.679688 129.929688 82.679688 187.679688 C 82.679688 245.429688 129.929688 292.679688 187.679688 292.679688 C 245.429688 292.679688 292.679688 245.429688 292.679688 187.679688 C 292.679688 129.929688 245.429688 82.679688 187.679688 82.679688 Z M 229.679688 198.179688 L 198.179688 198.179688 L 198.179688 229.679688 C 198.179688 235.980469 193.980469 240.179688 187.679688 240.179688 C 181.378906 240.179688 177.179688 235.980469 177.179688 229.679688 L 177.179688 198.179688 L 145.679688 198.179688 C 139.378906 198.179688 135.179688 193.980469 135.179688 187.679688 C 135.179688 181.378906 139.378906 177.179688 145.679688 177.179688 L 177.179688 177.179688 L 177.179688 145.679688 C 177.179688 139.378906 181.378906 135.179688 187.679688 135.179688 C 193.980469 135.179688 198.179688 139.378906 198.179688 145.679688 L 198.179688 177.179688 L 229.679688 177.179688 C 235.980469 177.179688 240.179688 181.378906 240.179688 187.679688 C 240.179688 193.980469 235.980469 198.179688 229.679688 198.179688 Z M 229.679688 198.179688 " fill-opacity="1" fill-rule="nonzero"/></g></svg>