<svg width="116" height="176" viewBox="0 0 116 176" fill="none" xmlns="http://www.w3.org/2000/svg">
<mask id="mask0_449_328" style="mask-type:luminance" maskUnits="userSpaceOnUse" x="45" y="0" width="50" height="50">
<path d="M45.188 0H94.5213V49.1094H45.188V0Z" fill="white"/>
</mask>
<g mask="url(#mask0_449_328)">
<path d="M59.9432 21.7083L54.5942 13.5677L68.0421 27.0156C67.7401 27.4792 67.4692 27.9531 67.2244 28.4479C66.9796 28.9427 66.7661 29.4479 66.5838 29.9636C66.3963 30.4844 66.2453 31.0104 66.1255 31.5469C66.0005 32.0833 65.9119 32.625 65.8546 33.1719C65.7974 33.7188 65.7713 34.2708 65.7765 34.8177C65.7869 35.3698 65.8234 35.9167 65.8963 36.4636C65.9692 37.0104 66.0734 37.5469 66.2088 38.0833C66.3494 38.6146 66.5161 39.1354 66.714 39.6511C66.9119 40.1615 67.1411 40.6615 67.3963 41.1511C67.6515 41.6354 67.938 42.1042 68.2505 42.5573C68.563 43.0104 68.9015 43.4427 69.2661 43.8542C69.6307 44.2656 70.0213 44.6563 70.4328 45.0208C70.839 45.3906 71.2713 45.7292 71.7244 46.0469C72.1724 46.3594 72.6411 46.6511 73.1255 46.9115C73.6099 47.1667 74.1099 47.4011 74.6203 47.599C75.1359 47.8021 75.6567 47.9688 76.188 48.1094C76.7192 48.25 77.2609 48.3542 77.8078 48.4323C78.3494 48.5052 78.8963 48.5469 79.4484 48.5573C80.0005 48.5677 80.5474 48.5469 81.0942 48.4896C81.6411 48.4375 82.1828 48.349 82.7192 48.2292C83.2609 48.1094 83.7869 47.9636 84.3078 47.7813C84.8234 47.599 85.3338 47.3854 85.8286 47.1458C86.3234 46.9011 86.7974 46.6302 87.2609 46.3333C87.7244 46.0365 88.1671 45.7083 88.589 45.3594C89.0161 45.0104 89.4171 44.6354 89.7973 44.2344C90.1723 43.8386 90.5317 43.4167 90.8598 42.9792C91.188 42.5365 91.4901 42.0781 91.7661 41.599C92.0421 41.125 92.2869 40.6354 92.5057 40.1302C92.7244 39.625 92.9067 39.1042 93.063 38.5781C93.2192 38.0521 93.3442 37.5156 93.438 36.974C93.5317 36.4323 93.589 35.8854 93.6151 35.3333C93.6463 34.7865 93.6411 34.2344 93.6046 33.6875C93.563 33.1406 93.4953 32.5938 93.3963 32.0521C93.2921 31.5104 93.1567 30.9792 92.9953 30.4531C92.8286 29.9271 92.6307 29.4167 92.4067 28.9167C92.1828 28.4115 91.9276 27.9271 91.6411 27.4531C91.3598 26.9844 91.0473 26.5313 90.714 26.0938C90.3755 25.6615 90.0109 25.2448 89.6255 24.8542C89.2401 24.4635 88.8338 24.0938 88.4015 23.75C87.9744 23.4063 87.5213 23.0938 87.0578 22.8021C86.589 22.5104 86.1046 22.25 85.6099 22.0156C85.1099 21.7813 84.5994 21.5781 84.0786 21.4063C83.5526 21.2344 83.0213 21.0938 82.4849 20.9844C81.9432 20.875 81.4015 20.7969 80.8546 20.75C80.3026 20.7031 79.7557 20.6927 79.2036 20.7135C78.6567 20.7344 78.1099 20.7865 77.563 20.8698C77.0213 20.9531 76.4849 21.0677 75.9536 21.2188C75.4224 21.3646 74.9067 21.5469 74.3963 21.7552L81.1567 32.0365L72.089 22.9688L65.9119 16.7969C66.1151 16.4375 66.2974 16.0677 66.4588 15.6875C66.6203 15.3073 66.7557 14.9219 66.8703 14.526C66.9849 14.1302 67.0786 13.7292 67.1463 13.3229C67.2192 12.9167 67.2609 12.5052 67.2817 12.0938C67.3078 11.6823 67.3026 11.2708 67.2765 10.8594C67.2505 10.4479 67.2036 10.0417 67.1307 9.63543C67.0578 9.22918 66.9588 8.82813 66.839 8.43751C66.7244 8.04168 66.5786 7.65626 66.4171 7.27605C66.2505 6.89584 66.0682 6.53126 65.8599 6.17188C65.6567 5.81772 65.4276 5.47397 65.1828 5.14063C64.938 4.81251 64.6724 4.50001 64.3911 4.19792C64.1046 3.89584 63.8078 3.61459 63.4953 3.34897C63.1776 3.08334 62.8494 2.83855 62.5057 2.60938C62.1619 2.38542 61.8026 2.17709 61.438 1.98959C61.0682 1.80209 60.6932 1.64063 60.3078 1.4948C59.9171 1.35418 59.5265 1.23438 59.1255 1.13542C58.7244 1.04168 58.3182 0.968757 57.9119 0.916675C57.5005 0.864591 57.089 0.83855 56.6776 0.83855C56.2661 0.833342 55.8546 0.854175 55.4484 0.90105C55.0369 0.942716 54.6307 1.01042 54.2296 1.10417C53.8286 1.19792 53.4328 1.3073 53.0421 1.44792C52.6567 1.58334 52.2765 1.7448 51.9067 1.92709C51.5369 2.10418 51.1776 2.3073 50.8286 2.53126C50.4849 2.75522 50.1515 2.9948 49.8338 3.25522C49.5109 3.51563 49.2088 3.79688 48.9224 4.09376C48.6359 4.38542 48.3703 4.69792 48.1151 5.02605C47.8651 5.35418 47.6359 5.69272 47.4224 6.04688C47.214 6.40105 47.0213 6.76563 46.8546 7.14063C46.6828 7.51563 46.5369 7.90105 46.4119 8.29688C46.2869 8.68751 46.188 9.08855 46.1099 9.48959C46.0317 9.89584 45.9744 10.3021 45.9432 10.7136C45.9119 11.125 45.9067 11.5365 45.9224 11.9479C45.938 12.3594 45.9744 12.7708 46.0421 13.1771C46.1046 13.5833 46.188 13.9844 46.3026 14.3854C46.4119 14.7813 46.5421 15.1719 46.6984 15.5521C46.8546 15.9323 47.0317 16.3073 47.2296 16.6667C47.4276 17.026 47.6411 17.375 47.8807 17.7135C48.1203 18.0521 48.3755 18.3698 48.6515 18.6771C48.9276 18.9844 49.2192 19.276 49.5265 19.5469C49.839 19.8177 50.1619 20.0729 50.5005 20.3073C50.839 20.5417 51.188 20.7604 51.5526 20.9531C51.9171 21.1458 52.2869 21.3229 52.6724 21.474C53.0526 21.625 53.4432 21.7552 53.8442 21.8594C54.2401 21.9688 54.6463 22.0521 55.0526 22.1094C55.4588 22.1719 55.8703 22.2031 56.2817 22.2188C56.6932 22.2292 57.1046 22.2188 57.5161 22.1823C57.9276 22.151 58.3338 22.0886 58.7349 22.0104C59.1411 21.9271 59.5369 21.8229 59.9328 21.6927L59.9432 21.7083Z" fill="black"/>
</g>
<path d="M112.344 47.5729C111.495 46.7239 110.527 46.0364 109.448 45.5104C108.365 44.9844 107.23 44.651 106.032 44.5104C104.839 44.3698 103.657 44.4271 102.48 44.6875C101.308 44.9479 100.209 45.3906 99.1828 46.0208C98.1567 46.651 97.2661 47.4271 96.5057 48.3594C95.7401 49.2917 95.1567 50.3229 94.7401 51.4479C94.3286 52.5781 94.1098 53.7448 94.089 54.9479C94.0682 56.151 94.2453 57.3229 94.6203 58.4635L102.761 53.1094L89.3078 66.5625C88.8494 66.2604 88.3703 65.9896 87.8807 65.7448C87.3859 65.5 86.8807 65.2864 86.3598 65.1042C85.8442 64.9167 85.3182 64.7656 84.7817 64.6406C84.2453 64.5208 83.7036 64.4323 83.1567 64.375C82.6098 64.3177 82.0578 64.2917 81.5109 64.2969C80.9588 64.3073 80.4119 64.3437 79.8651 64.4167C79.3182 64.4896 78.7817 64.5937 78.2505 64.7292C77.714 64.8698 77.1932 65.0364 76.6776 65.2344C76.1671 65.4323 75.6671 65.6614 75.1828 65.9167C74.6932 66.1719 74.2244 66.4583 73.7713 66.7708C73.3182 67.0833 72.8859 67.4219 72.4744 67.7864C72.063 68.151 71.6723 68.5417 71.3078 68.9479C70.9432 69.3594 70.5994 69.7917 70.2869 70.2396C69.9692 70.6927 69.6828 71.1614 69.4223 71.6458C69.1619 72.1302 68.9328 72.6302 68.7296 73.1406C68.5317 73.651 68.3598 74.1771 68.2244 74.7083C68.0838 75.2396 67.9744 75.776 67.9015 76.3229C67.8286 76.8698 67.7817 77.4167 67.7713 77.9635C67.7609 78.5156 67.7869 79.0625 67.839 79.6094C67.8963 80.1562 67.9848 80.7031 68.0994 81.2396C68.2192 81.776 68.3703 82.3021 68.5526 82.8229C68.7348 83.3437 68.9484 83.849 69.188 84.3437C69.4276 84.8385 69.6984 85.3125 70.0005 85.776C70.2973 86.2396 70.6203 86.6823 70.9744 87.1042C71.3234 87.5312 71.6984 87.9323 72.0942 88.3073C72.4953 88.6875 72.9119 89.0417 73.3546 89.375C73.7973 89.7031 74.2557 90.0052 74.7296 90.2812C75.2036 90.5573 75.6984 90.8021 76.2036 91.0208C76.7088 91.2344 77.2244 91.4219 77.7505 91.5781C78.2817 91.7344 78.813 91.8594 79.3546 91.9479C79.8963 92.0417 80.4432 92.1042 80.9953 92.1302C81.5421 92.1562 82.0942 92.151 82.6411 92.1146C83.188 92.0781 83.7348 92.0104 84.2765 91.9062C84.8182 91.8073 85.3494 91.6719 85.8755 91.5052C86.3963 91.3437 86.9119 91.1458 87.4119 90.9219C87.9119 90.6927 88.4015 90.4427 88.8703 90.1562C89.3442 89.875 89.7973 89.5625 90.2296 89.2239C90.6671 88.8906 91.0786 88.526 91.4692 88.1406C91.8651 87.7552 92.2296 87.3489 92.5734 86.9167C92.9171 86.4896 93.2348 86.0364 93.5265 85.5729C93.813 85.1042 94.0786 84.6198 94.3078 84.125C94.5421 83.625 94.7453 83.1146 94.9171 82.5937C95.089 82.0729 95.2348 81.5417 95.3442 81C95.4536 80.4635 95.5317 79.9167 95.5734 79.3698C95.6203 78.8229 95.6307 78.2708 95.6151 77.7239C95.5942 77.1719 95.5421 76.625 95.4588 76.0833C95.3703 75.5417 95.2557 75.0052 95.1098 74.4739C94.9588 73.9427 94.7817 73.4219 94.5682 72.9167L84.2921 79.6719L99.5317 64.4323C100.089 64.7448 100.672 65.0052 101.277 65.2135C101.881 65.4219 102.5 65.5781 103.131 65.6719C103.766 65.7708 104.402 65.8125 105.042 65.7969C105.683 65.7812 106.313 65.7083 106.943 65.5729C107.568 65.4427 108.178 65.2604 108.771 65.0208C109.365 64.7812 109.933 64.4896 110.474 64.1458C111.016 63.8073 111.521 63.4167 111.995 62.9844C112.464 62.5521 112.896 62.0833 113.282 61.5729C113.667 61.0625 114.006 60.5208 114.297 59.9531C114.589 59.3802 114.823 58.7917 115.011 58.1771C115.193 57.5625 115.323 56.9375 115.391 56.3021C115.464 55.6667 115.48 55.0312 115.438 54.3906C115.396 53.75 115.297 53.125 115.141 52.5C114.985 51.8802 114.777 51.2812 114.511 50.6979C114.245 50.1146 113.933 49.5573 113.568 49.0312C113.209 48.5052 112.797 48.0104 112.349 47.5573L112.344 47.5729Z" fill="black"/>
<mask id="mask1_449_328" style="mask-type:luminance" maskUnits="userSpaceOnUse" x="21" y="67" width="50" height="50">
<path d="M21.188 67.776H70.5213V117H21.188V67.776Z" fill="white"/>
</mask>
<g mask="url(#mask1_449_328)">
<path d="M55.5526 95.4479L60.9015 103.589L53.6307 96.3125L47.4536 90.1406C47.7557 89.6771 48.0265 89.2031 48.2713 88.7083C48.5161 88.2135 48.7296 87.7083 48.9119 87.1927C49.0994 86.6719 49.2505 86.1458 49.3755 85.6094C49.4953 85.0729 49.5838 84.5312 49.6411 83.9844C49.6984 83.4375 49.7244 82.8854 49.7192 82.3385C49.7088 81.7864 49.6724 81.2396 49.5994 80.6927C49.5265 80.1458 49.4224 79.6094 49.2869 79.0729C49.1515 78.5417 48.9849 78.0208 48.7817 77.5052C48.5838 76.9896 48.3599 76.4948 48.0994 76.0052C47.8442 75.5208 47.5578 75.0521 47.2453 74.5989C46.9328 74.1458 46.5942 73.7135 46.2296 73.3021C45.8651 72.8906 45.4744 72.5 45.0682 72.1302C44.6567 71.7656 44.2244 71.4271 43.7765 71.1094C43.3234 70.7917 42.8546 70.5052 42.3703 70.2448C41.8859 69.9844 41.3859 69.7552 40.8755 69.5573C40.3599 69.3542 39.839 69.1823 39.3078 69.0469C38.7765 68.9062 38.2349 68.8021 37.6932 68.7239C37.1463 68.651 36.5994 68.6094 36.0474 68.5989C35.5005 68.5885 34.9484 68.6094 34.4015 68.6614C33.8546 68.7187 33.313 68.8073 32.7765 68.9271C32.2401 69.0417 31.7088 69.1927 31.188 69.375C30.6724 69.5573 30.1619 69.7708 29.6671 70.0104C29.1776 70.2552 28.6984 70.526 28.2349 70.8229C27.7713 71.1198 27.3286 71.4427 26.9067 71.7969C26.4796 72.1458 26.0786 72.5208 25.7036 72.9219C25.3234 73.3177 24.9692 73.7396 24.6359 74.1771C24.3078 74.6198 24.0057 75.0781 23.7296 75.5573C23.4536 76.0312 23.2088 76.5208 22.9901 77.026C22.7765 77.5312 22.589 78.0521 22.4328 78.5781C22.2765 79.1042 22.1515 79.6406 22.0578 80.1823C21.9692 80.7239 21.9067 81.2708 21.8807 81.8229C21.8494 82.3698 21.8546 82.9219 21.8963 83.4687C21.9328 84.0156 22.0005 84.5625 22.1046 85.1042C22.2036 85.6458 22.339 86.1771 22.5057 86.7031C22.6671 87.224 22.8651 87.7396 23.089 88.2396C23.313 88.7448 23.5682 89.2292 23.8546 89.7031C24.1359 90.1719 24.4484 90.625 24.7869 91.0625C25.1203 91.4948 25.4849 91.9114 25.8703 92.3021C26.2557 92.6927 26.6671 93.0625 27.0942 93.4062C27.5265 93.75 27.9744 94.0625 28.438 94.3542C28.9067 94.6458 29.3911 94.9062 29.8911 95.1406C30.3859 95.375 30.8963 95.5781 31.4224 95.75C31.9432 95.9219 32.4744 96.0625 33.0109 96.1719C33.5526 96.2812 34.0942 96.3594 34.6463 96.4062C35.1932 96.4479 35.7401 96.4635 36.2921 96.4427C36.839 96.4219 37.3859 96.3698 37.9328 96.2864C38.4744 96.2031 39.0109 96.0833 39.5421 95.9375C40.0734 95.7864 40.589 95.6094 41.0994 95.401L34.339 85.1198L43.4067 94.1823L49.5786 100.359C49.3755 100.719 49.1932 101.089 49.0369 101.469C48.8755 101.849 48.7349 102.234 48.6203 102.63C48.5057 103.026 48.4119 103.427 48.3442 103.839C48.2713 104.245 48.2296 104.651 48.2088 105.062C48.1828 105.474 48.188 105.885 48.214 106.297C48.2401 106.708 48.2869 107.12 48.3599 107.526C48.4328 107.932 48.5265 108.333 48.6463 108.724C48.7661 109.12 48.9067 109.505 49.0734 109.885C49.2349 110.266 49.4224 110.63 49.6255 110.99C49.8338 111.344 50.063 111.687 50.3078 112.021C50.5526 112.349 50.8182 112.667 51.0994 112.969C51.3807 113.266 51.6828 113.552 51.9953 113.818C52.313 114.083 52.6411 114.328 52.9849 114.557C53.3286 114.786 53.688 114.99 54.0526 115.177C54.4224 115.365 54.7974 115.526 55.188 115.672C55.5734 115.812 55.964 115.932 56.3651 116.031C56.7661 116.13 57.1724 116.203 57.5838 116.255C57.9901 116.302 58.4015 116.328 58.813 116.333C59.2296 116.339 59.6359 116.318 60.0474 116.271C60.4588 116.224 60.8651 116.156 61.2661 116.068C61.6671 115.974 62.063 115.859 62.4536 115.724C62.8442 115.589 63.2192 115.427 63.5942 115.245C63.964 115.062 64.3234 114.865 64.6671 114.641C65.0161 114.417 65.3494 114.177 65.6671 113.917C65.9849 113.651 66.2921 113.375 66.5786 113.078C66.8651 112.781 67.1307 112.469 67.3859 112.141C67.6359 111.818 67.8651 111.474 68.0786 111.12C68.2869 110.766 68.4796 110.401 68.6463 110.026C68.8182 109.651 68.964 109.266 69.089 108.87C69.214 108.479 69.3182 108.078 69.3963 107.677C69.4744 107.271 69.5265 106.865 69.563 106.453C69.5942 106.042 69.5994 105.63 69.5838 105.219C69.5682 104.802 69.5265 104.396 69.464 103.99C69.4015 103.578 69.313 103.177 69.2036 102.781C69.0942 102.38 68.964 101.995 68.8078 101.609C68.6515 101.229 68.4744 100.854 68.2765 100.495C68.0786 100.135 67.8599 99.7812 67.6203 99.4479C67.3859 99.1094 67.1255 98.7917 66.8494 98.4844C66.5734 98.1771 66.2817 97.8854 65.9744 97.6146C65.6671 97.3385 65.3442 97.0833 65.0057 96.8489C64.6671 96.6146 64.313 96.401 63.9484 96.2031C63.589 96.0104 63.214 95.8333 62.8286 95.6823C62.4484 95.5312 62.0578 95.401 61.6567 95.2969C61.2609 95.1875 60.8546 95.1042 60.4484 95.0469C60.0421 94.9844 59.6307 94.9479 59.2192 94.9375C58.8026 94.9271 58.3911 94.9375 57.9849 94.9739C57.5734 95.0052 57.1619 95.0625 56.7609 95.1458C56.3546 95.2292 55.9588 95.3333 55.5682 95.4635L55.5526 95.4479Z" fill="black"/>
</g>
<path d="M12.735 64.0417L20.0111 56.7708L26.1882 50.5937C26.6465 50.8958 27.1257 51.1667 27.6205 51.4115C28.11 51.6562 28.6152 51.8698 29.1361 52.0521C29.6517 52.2396 30.183 52.3906 30.7194 52.5104C31.2559 52.6354 31.7975 52.724 32.3444 52.7812C32.8913 52.8385 33.4382 52.8646 33.9902 52.8594C34.5371 52.849 35.084 52.8073 35.6309 52.7396C36.1777 52.6667 36.7142 52.5625 37.2507 52.4271C37.7819 52.2865 38.3027 52.1198 38.8184 51.9219C39.3288 51.724 39.8288 51.4948 40.3184 51.2396C40.8027 50.9844 41.2715 50.6979 41.7246 50.3854C42.1777 50.0729 42.61 49.7344 43.0215 49.3698C43.433 49.0052 43.8236 48.6146 44.1882 48.2083C44.5527 47.7969 44.8965 47.3646 45.209 46.9167C45.5267 46.4635 45.8132 45.9948 46.0736 45.5104C46.334 45.026 46.5632 44.526 46.7663 44.0156C46.9642 43.5052 47.1361 42.9792 47.2767 42.4479C47.4121 41.9167 47.5215 41.3802 47.5944 40.8333C47.6725 40.2865 47.7142 39.7396 47.7246 39.1927C47.735 38.6406 47.709 38.0937 47.6569 37.5469C47.5996 36.9948 47.5163 36.4531 47.3965 35.9167C47.2767 35.3802 47.1257 34.8542 46.9434 34.3333C46.7611 33.8125 46.5527 33.3073 46.308 32.8125C46.0684 32.3177 45.7975 31.8437 45.5007 31.3802C45.1986 30.9167 44.8757 30.474 44.5267 30.0521C44.1725 29.625 43.7975 29.224 43.4017 28.8437C43.0007 28.4687 42.584 28.1146 42.1413 27.7812C41.7038 27.4531 41.2455 27.151 40.7663 26.875C40.2923 26.599 39.7975 26.3542 39.2923 26.1354C38.7871 25.9219 38.2715 25.7344 37.7455 25.5781C37.2194 25.4219 36.683 25.2969 36.1413 25.2031C35.5996 25.1146 35.0527 25.0521 34.5007 25.026C33.9538 25 33.4069 25 32.8548 25.0417C32.308 25.0781 31.7611 25.1458 31.2194 25.25C30.683 25.349 30.1465 25.4844 29.6257 25.651C29.0996 25.8125 28.584 26.0104 28.084 26.2344C27.584 26.4583 27.0944 26.7135 26.6257 27C26.1517 27.2812 25.6986 27.5937 25.2663 27.9323C24.8288 28.2656 24.4173 28.6302 24.0267 29.0156C23.6361 29.401 23.2663 29.8073 22.9225 30.2396C22.5788 30.6667 22.2611 31.1146 21.9746 31.5833C21.683 32.0521 21.4225 32.5365 21.1882 33.0312C20.9538 33.5312 20.7507 34.0417 20.5788 34.5625C20.4069 35.0833 20.2663 35.6146 20.1569 36.1562C20.0475 36.6927 19.9694 37.2396 19.9225 37.7865C19.8757 38.3333 19.8652 38.8854 19.8861 39.4323C19.9017 39.9844 19.9538 40.5312 20.0423 41.0729C20.1257 41.6146 20.2402 42.151 20.3913 42.6823C20.5371 43.2135 20.7142 43.7292 20.9277 44.2396L31.209 37.4844L22.1413 46.5469L15.9642 52.724C15.6048 52.5208 15.235 52.3385 14.86 52.1771C14.4798 52.0208 14.0892 51.8802 13.6934 51.7656C13.2975 51.651 12.8965 51.5573 12.4902 51.4896C12.084 51.4167 11.6777 51.375 11.2663 51.349C10.8548 51.3281 10.4382 51.3333 10.0267 51.3594C9.61524 51.3854 9.20899 51.4323 8.80274 51.5052C8.39649 51.5781 7.99545 51.6771 7.60483 51.7917C7.20899 51.9115 6.82358 52.0573 6.44337 52.2187C6.06316 52.3802 5.69858 52.5677 5.3392 52.776C4.98504 52.9792 4.64129 53.2083 4.30795 53.4531C3.97983 53.6979 3.66212 53.9635 3.36524 54.2448C3.06316 54.5312 2.78191 54.8281 2.51629 55.1458C2.25066 55.4583 2.00066 55.7865 1.7767 56.1302C1.54754 56.474 1.3392 56.8333 1.15691 57.1979C0.969412 57.5677 0.802744 57.9427 0.662119 58.3333C0.516285 58.7187 0.396493 59.1146 0.302744 59.5104C0.203785 59.9115 0.130868 60.3177 0.0787853 60.7292C0.0319093 61.1354 0.00586831 61.5469 0.000660308 61.9583C-0.00454769 62.3698 0.0214936 62.7812 0.0631603 63.1927C0.110035 63.6042 0.177744 64.0104 0.266285 64.4115C0.360035 64.8125 0.474619 65.2083 0.610035 65.599C0.750661 65.9844 0.90691 66.3646 1.0892 66.7344C1.27149 67.1042 1.47462 67.4635 1.69337 67.8125C1.91733 68.1562 2.16212 68.4896 2.42254 68.8125C2.68295 69.1302 2.95899 69.4323 3.25587 69.7187C3.55274 70.0052 3.86524 70.276 4.19337 70.526C4.52149 70.776 4.86004 71.0052 5.2142 71.2187C5.56837 71.4271 5.93295 71.6198 6.30795 71.7865C6.68295 71.9583 7.06837 72.1042 7.4642 72.2292C7.85483 72.3542 8.25587 72.4531 8.65691 72.5365C9.06316 72.6146 9.46941 72.6667 9.88087 72.6979C10.2923 72.7292 10.7038 72.7396 11.1152 72.724C11.5267 72.7083 11.9382 72.6667 12.3444 72.6042C12.7507 72.5365 13.1569 72.4531 13.5527 72.3437C13.9486 72.2344 14.3392 72.099 14.7194 71.9427C15.1048 71.7917 15.4746 71.6146 15.8392 71.4167C16.1986 71.2187 16.5475 71 16.8861 70.7604C17.2194 70.5208 17.5423 70.2656 17.8496 69.9896C18.1569 69.7135 18.4434 69.4219 18.7194 69.1094C18.9902 68.8021 19.2455 68.4792 19.4798 68.1406C19.7142 67.8021 19.9277 67.4531 20.1257 67.0885C20.3184 66.724 20.4955 66.349 20.6465 65.9687C20.7975 65.5833 20.9277 65.1927 21.0319 64.7969C21.1361 64.3958 21.2194 63.9948 21.2819 63.5885C21.3392 63.1771 21.3757 62.7656 21.3913 62.3542C21.4017 61.9427 21.3913 61.5312 21.3548 61.1198C21.3184 60.7135 21.2611 60.3021 21.1777 59.901C21.0996 59.4948 20.9902 59.099 20.8652 58.7083L12.735 64.0417Z" fill="black"/>
<path d="M34.0274 155C33.5378 154.958 32.9962 154.916 32.4024 154.875C31.8035 154.843 31.2358 154.822 30.6941 154.812C30.1628 154.812 29.7618 154.812 29.4858 154.812H22.6316L22.5691 153.479L24.0899 153.02C24.116 152.953 24.142 152.718 24.1733 152.312C24.1993 151.911 24.2201 151.447 24.2358 150.916C24.2462 150.375 24.2566 149.849 24.2566 149.333V146.52C24.2566 145.968 24.2462 145.427 24.2358 144.895C24.2201 144.354 24.1993 143.895 24.1733 143.52C24.142 143.135 24.116 142.895 24.0899 142.812L22.5691 142.395L22.6316 141.062H30.2358L30.2983 142.437L28.3608 142.854C28.3451 142.911 28.3191 143.119 28.2774 143.479C28.2462 143.843 28.2253 144.291 28.2149 144.833C28.1993 145.375 28.1941 145.937 28.1941 146.52V149.333C28.1941 150.333 28.1993 151.093 28.2149 151.604C28.2253 152.119 28.2618 152.494 28.3191 152.729C28.6108 152.77 28.9076 152.802 29.2149 152.812C29.5326 152.828 29.9076 152.833 30.3399 152.833H30.8191C31.0795 152.833 31.3608 152.822 31.6524 152.791C31.9441 152.75 32.142 152.718 32.2566 152.687L33.6108 149.958L35.2983 150.375L34.0274 155Z" fill="black"/>
<path d="M44.1239 155.02C42.6343 155.02 41.3114 154.729 40.1447 154.145C38.9884 153.552 38.0822 152.739 37.4155 151.708C36.7489 150.666 36.4155 149.494 36.4155 148.187C36.4155 146.76 36.7384 145.494 37.3947 144.395C38.0614 143.302 38.9676 142.432 40.1239 141.791C41.2905 141.156 42.6134 140.833 44.103 140.833C45.5614 140.833 46.8426 141.125 47.9572 141.708C49.0666 142.291 49.9364 143.099 50.5614 144.125C51.1864 145.156 51.4989 146.343 51.4989 147.687C51.4989 148.994 51.2489 150.114 50.7489 151.041C50.2593 151.974 49.6291 152.739 48.853 153.333C48.0874 153.916 47.2801 154.349 46.4364 154.625C45.603 154.885 44.8322 155.02 44.1239 155.02ZM44.2697 152.979C44.9051 152.979 45.4259 152.807 45.8322 152.458C46.2332 152.114 46.5249 151.593 46.7072 150.895C46.8999 150.187 46.9989 149.328 46.9989 148.312C46.9989 147.145 46.8634 146.14 46.603 145.291C46.3374 144.447 45.9676 143.791 45.4989 143.333C45.0405 142.875 44.4832 142.645 43.8322 142.645C42.9416 142.645 42.2332 143.057 41.7072 143.875C41.1916 144.697 40.9364 145.849 40.9364 147.333C40.9364 148.447 41.0718 149.432 41.353 150.291C41.6447 151.14 42.0405 151.802 42.5405 152.27C43.0405 152.744 43.6134 152.979 44.2697 152.979Z" fill="black"/>
<path d="M61.1603 155.02C59.6187 155.02 58.2645 154.75 57.0978 154.208C55.9312 153.656 55.0249 152.885 54.3895 151.895C53.7489 150.895 53.4312 149.724 53.4312 148.375C53.4312 147.099 53.6499 145.989 54.0978 145.041C54.5405 144.099 55.1499 143.322 55.9312 142.708C56.7228 142.083 57.6291 141.619 58.6603 141.312C59.702 140.994 60.8114 140.833 61.9937 140.833C62.7437 140.833 63.4624 140.916 64.1603 141.083C64.8687 141.25 65.4416 141.453 65.8895 141.687L65.9728 145.145L64.2437 145.208L63.4728 142.979C63.1655 142.843 62.8687 142.75 62.577 142.708C62.2957 142.656 62.0249 142.625 61.7645 142.625C61.0249 142.625 60.3739 142.812 59.8062 143.187C59.2332 143.552 58.7853 144.099 58.452 144.833C58.1291 145.572 57.9728 146.479 57.9728 147.562C57.9728 148.687 58.1499 149.677 58.5145 150.52C58.8739 151.369 59.3582 152.02 59.9728 152.479C60.5822 152.937 61.2541 153.166 61.9937 153.166C62.0874 153.166 62.2228 153.161 62.3895 153.145C62.5666 153.119 62.7332 153.099 62.8895 153.083L62.3478 154.312V151.812C62.3478 151.593 62.3322 151.307 62.3062 150.958C62.2749 150.614 62.2489 150.333 62.2228 150.125L60.5145 149.687L60.577 148.291H67.327L67.4103 149.625L66.1603 150.104C66.1447 150.343 66.1395 150.625 66.1395 150.958C66.1395 151.291 66.1395 151.604 66.1395 151.895C66.1395 152.062 66.1447 152.312 66.1603 152.645C66.1707 152.979 66.1864 153.354 66.202 153.77C65.4937 154.218 64.702 154.536 63.827 154.729C62.9624 154.921 62.077 155.02 61.1603 155.02Z" fill="black"/>
<path d="M68.9937 154.812L68.9312 153.479L70.452 153.02C70.478 152.968 70.5041 152.76 70.5353 152.395C70.577 152.036 70.603 151.583 70.6187 151.041C70.6291 150.489 70.6395 149.916 70.6395 149.333V146.52C70.6395 145.911 70.6291 145.333 70.6187 144.791C70.603 144.239 70.577 143.781 70.5353 143.416C70.5041 143.041 70.478 142.833 70.452 142.791L68.9312 142.395L68.9937 141.062H76.1603L76.2437 142.395L74.7228 142.791C74.6812 142.864 74.6447 143.099 74.6187 143.5C74.603 143.89 74.5874 144.354 74.577 144.895C74.5614 145.437 74.5562 145.979 74.5562 146.52V149.333C74.5562 149.849 74.5614 150.375 74.577 150.916C74.5874 151.447 74.603 151.911 74.6187 152.312C74.6447 152.703 74.6812 152.937 74.7228 153.02L76.2437 153.479L76.1603 154.812H68.9937Z" fill="black"/>
<path d="M89.4049 149.895V147.312C89.4049 146.661 89.3945 146.01 89.3841 145.354C89.3841 144.687 89.3685 144.125 89.3424 143.666C89.3268 143.197 89.2904 142.916 89.2383 142.833L87.5924 142.395L87.6549 141.062H92.9883L93.0716 142.395L91.5508 142.833C91.5091 142.916 91.4727 143.187 91.4466 143.645C91.4154 144.104 91.3945 144.666 91.3841 145.333C91.3841 145.989 91.3841 146.645 91.3841 147.312V151.083C91.3841 151.947 91.3737 152.666 91.3633 153.25C91.3633 153.833 91.3633 154.406 91.3633 154.958H89.6966L79.7591 144.458H81.4883V148.104C81.4883 148.885 81.4883 149.635 81.4883 150.354C81.4987 151.062 81.5195 151.661 81.5508 152.145C81.5924 152.635 81.6341 152.927 81.6758 153.02L83.3424 153.479L83.2799 154.812H77.8008L77.7383 153.479L79.2591 153.02C79.2852 152.927 79.3112 152.619 79.3424 152.104C79.3685 151.578 79.3893 150.958 79.4049 150.25C79.4154 149.531 79.4258 148.812 79.4258 148.104V145.583C79.4258 145.39 79.4102 145.104 79.3841 144.729C79.3685 144.343 79.3477 143.958 79.3216 143.583C79.2904 143.208 79.2695 142.958 79.2591 142.833L77.7383 142.395L77.8008 141.062H81.8424L90.6966 149.895H89.4049Z" fill="black"/>
<path d="M15.2408 168.238H17.4908L20.22 174.467H19.9908L22.6783 168.238H24.7825L24.8241 168.738L24.0116 168.905C24.0116 169.03 24.0116 169.259 24.0116 169.592C24.0116 169.926 24.0168 170.28 24.0325 170.655L24.0741 173.051C24.0846 173.483 24.095 173.842 24.095 174.134C24.1054 174.426 24.121 174.655 24.1366 174.821C24.1471 174.988 24.1575 175.124 24.1575 175.217L24.9491 175.384L24.9283 175.884H22.1783L22.1366 175.384L22.9283 175.217C22.9283 175.124 22.9283 175.004 22.9283 174.863C22.9283 174.728 22.9283 174.53 22.9283 174.28C22.9283 174.019 22.9283 173.67 22.9283 173.238L22.9075 168.613H23.2408L20.095 175.926H19.6366L16.4075 168.613H16.7408L16.7616 173.03C16.7616 173.754 16.7616 174.28 16.7616 174.613C16.7616 174.936 16.7668 175.129 16.7825 175.196L17.6575 175.384L17.6158 175.884H15.0741L15.0325 175.384L15.9283 175.196C15.9283 175.144 15.9283 175.03 15.9283 174.863C15.9387 174.696 15.9491 174.483 15.9491 174.217C15.9596 173.941 15.97 173.613 15.97 173.238L16.0116 170.655C16.0221 170.28 16.0221 169.936 16.0116 169.613C16.0116 169.295 16.0116 169.066 16.0116 168.926L15.22 168.738L15.2408 168.238Z" fill="black"/>
<path d="M32.1167 176.009C31.3667 176.009 30.6896 175.842 30.0959 175.509C29.5125 175.176 29.0542 174.717 28.7209 174.134C28.3979 173.54 28.2417 172.858 28.2417 172.092C28.2417 171.332 28.4084 170.65 28.7417 170.051C29.075 169.457 29.5386 168.983 30.1375 168.634C30.7313 168.29 31.3979 168.113 32.1375 168.113C32.8719 168.113 33.5177 168.28 34.075 168.613C34.6271 168.946 35.0646 169.405 35.3875 169.988C35.7052 170.571 35.8667 171.249 35.8667 172.009C35.8667 172.592 35.7625 173.129 35.5542 173.613C35.3563 174.103 35.0854 174.525 34.7417 174.884C34.3927 175.233 33.9917 175.509 33.5334 175.717C33.0854 175.91 32.6167 176.009 32.1167 176.009ZM32.2417 175.301C32.7104 175.301 33.1219 175.186 33.4709 174.946C33.8146 174.696 34.0802 174.353 34.2625 173.905C34.4396 173.446 34.5334 172.92 34.5334 172.321C34.5334 171.613 34.4188 170.999 34.2 170.467C33.9917 169.941 33.7 169.53 33.325 169.238C32.95 168.936 32.5021 168.78 31.9917 168.78C31.2521 168.78 30.6688 169.061 30.2417 169.613C29.8094 170.155 29.5959 170.9 29.5959 171.842C29.5959 172.525 29.7052 173.124 29.9292 173.634C30.1479 174.15 30.4604 174.561 30.8667 174.863C31.2677 175.155 31.7261 175.301 32.2417 175.301Z" fill="black"/>
<path d="M39.8788 175.196C39.9049 175.144 39.9257 174.941 39.9413 174.592C39.9517 174.249 39.9622 173.816 39.9622 173.301V170.842C39.9622 170.275 39.9517 169.816 39.9413 169.467C39.9257 169.124 39.9049 168.926 39.8788 168.884L39.0872 168.738L39.108 168.238H42.2122C43.0559 168.238 43.7017 168.4 44.1497 168.717C44.5924 169.025 44.8163 169.478 44.8163 170.071C44.8163 170.561 44.6184 170.967 44.233 171.301C43.858 171.624 43.3788 171.801 42.7955 171.842L42.6288 171.759C43.4622 171.79 44.0924 171.967 44.5247 172.301C44.9674 172.634 45.1913 173.092 45.1913 173.676C45.1913 174.342 44.8997 174.879 44.3163 175.28C43.7434 175.686 42.9622 175.884 41.9622 175.884H39.108L39.0872 175.384L39.8788 175.196ZM41.0663 173.571C41.0663 173.962 41.0663 174.311 41.0663 174.613C41.0767 174.92 41.0872 175.113 41.0872 175.196C41.2122 175.212 41.3632 175.233 41.5455 175.259C41.7382 175.275 41.8892 175.28 42.0038 175.28C42.6705 175.28 43.1705 175.165 43.5038 174.926C43.8372 174.676 44.0038 174.311 44.0038 173.821C44.0038 173.311 43.8267 172.926 43.483 172.676C43.134 172.415 42.608 172.28 41.8997 172.28C41.5663 172.28 41.3372 172.28 41.2122 172.28C41.0872 172.28 40.9726 172.29 40.8788 172.301V171.634C41.0455 171.634 41.2017 171.644 41.358 171.655C41.509 171.655 41.6705 171.655 41.8372 171.655C42.4049 171.655 42.8424 171.53 43.1497 171.28C43.4674 171.03 43.6288 170.67 43.6288 170.196C43.6288 169.754 43.483 169.415 43.1913 169.176C42.8997 168.941 42.4882 168.821 41.9622 168.821H41.0872C41.0715 168.879 41.0663 169.071 41.0663 169.405C41.0663 169.728 41.0663 170.092 41.0663 170.509V173.571Z" fill="black"/>
<path d="M48.4384 175.884L48.3967 175.384L49.2092 175.196C49.2196 175.155 49.2301 175.061 49.2301 174.905C49.2301 174.754 49.2301 174.545 49.2301 174.28C49.2405 174.004 49.2509 173.676 49.2509 173.301V170.842C49.2509 170.457 49.2405 170.129 49.2301 169.863C49.2301 169.587 49.2301 169.363 49.2301 169.196C49.2301 169.03 49.2196 168.941 49.2092 168.926L48.3967 168.738L48.4384 168.238H51.2092L51.2301 168.738L50.4384 168.926C50.4228 168.941 50.4071 169.025 50.3967 169.176C50.3811 169.316 50.3655 169.525 50.3551 169.801C50.3551 170.066 50.3551 170.415 50.3551 170.842V173.301C50.3551 173.717 50.3551 174.061 50.3551 174.321C50.3655 174.587 50.3811 174.795 50.3967 174.946C50.4071 175.087 50.4228 175.17 50.4384 175.196L51.2301 175.384L51.2092 175.884H48.4384Z" fill="black"/>
<path d="M59.911 175.946C59.786 175.931 59.6453 175.915 59.4943 175.905C59.3381 175.905 59.187 175.894 59.036 175.884C58.8953 175.884 58.7651 175.884 58.6401 175.884H54.4735L54.4526 175.384L55.2443 175.196C55.2547 175.155 55.2651 175.061 55.2651 174.905C55.2756 174.754 55.286 174.54 55.286 174.259C55.2964 173.983 55.3068 173.665 55.3068 173.301V170.842C55.3068 170.457 55.3068 170.129 55.3068 169.863C55.3068 169.587 55.2964 169.374 55.286 169.217C55.2703 169.066 55.2547 168.967 55.2443 168.926L54.4526 168.738L54.4735 168.238H57.536L57.5776 168.759L56.4943 168.926C56.4787 168.957 56.4631 169.045 56.4526 169.196C56.4526 169.337 56.4422 169.545 56.4318 169.821C56.4162 170.087 56.411 170.426 56.411 170.842V173.301C56.411 173.749 56.4162 174.134 56.4318 174.467C56.4422 174.801 56.4526 175.019 56.4526 175.113C56.5776 175.129 56.7026 175.144 56.8276 175.155C56.9526 175.155 57.1037 175.155 57.286 175.155H58.2651C58.4578 175.155 58.6245 175.155 58.7651 175.155C58.9006 175.144 59.0412 175.124 59.1818 175.092L59.8485 173.821L60.4526 173.946L59.911 175.946Z" fill="black"/>
<path d="M68.8119 175.946C68.5619 175.915 68.338 175.894 68.1453 175.884C67.9473 175.884 67.7598 175.884 67.5828 175.884H63.1244L63.0828 175.384L63.8953 175.196C63.8953 175.155 63.8953 175.061 63.8953 174.905C63.9057 174.754 63.9161 174.545 63.9161 174.28C63.9265 174.004 63.9369 173.676 63.9369 173.301V170.842C63.9369 170.457 63.9265 170.129 63.9161 169.863C63.9161 169.587 63.9057 169.373 63.8953 169.217C63.8953 169.051 63.8953 168.957 63.8953 168.926L63.0828 168.738L63.1244 168.238H67.2911C67.4161 168.238 67.5463 168.238 67.6869 168.238C67.8223 168.238 67.9682 168.233 68.1244 168.217C68.2755 168.207 68.4369 168.196 68.6036 168.196L68.8536 169.905L68.2703 169.988L67.8536 168.905C67.7807 168.894 67.6973 168.884 67.6036 168.884C67.5203 168.873 67.4265 168.863 67.3328 168.863H65.8744C65.7078 168.863 65.5619 168.873 65.4369 168.884C65.3119 168.884 65.1869 168.894 65.0619 168.905C65.0619 168.936 65.0515 169.03 65.0411 169.196C65.0411 169.363 65.0411 169.551 65.0411 169.759C65.0411 169.967 65.0411 170.176 65.0411 170.384V173.884C65.0411 174.066 65.0411 174.248 65.0411 174.426C65.0411 174.592 65.0411 174.748 65.0411 174.884C65.0515 175.025 65.0619 175.123 65.0619 175.176C65.1869 175.191 65.3119 175.207 65.4369 175.217C65.5723 175.217 65.7286 175.217 65.8953 175.217H67.1453C67.338 175.217 67.4994 175.217 67.6244 175.217C67.7494 175.207 67.8432 175.196 67.9161 175.196C67.9838 175.186 68.0411 175.176 68.0828 175.176L68.7494 173.926L69.3328 174.051L68.8119 175.946ZM67.3536 173.217L67.2078 172.321C67.1661 172.311 67.088 172.301 66.9786 172.301C66.8796 172.29 66.7546 172.28 66.6036 172.28H65.6244C65.5098 172.28 65.3848 172.29 65.2494 172.301C65.1088 172.301 64.9682 172.311 64.8328 172.321V171.592C64.9682 171.608 65.1088 171.623 65.2494 171.634C65.3848 171.634 65.5098 171.634 65.6244 171.634H66.6036C66.7546 171.634 66.8796 171.634 66.9786 171.634C67.088 171.623 67.1661 171.608 67.2078 171.592L67.3536 170.696H67.9161V173.217H67.3536Z" fill="black"/>
<path d="M76.2559 175.884L76.2351 175.384L76.8601 175.196L79.5476 168.467L80.2976 168.009L83.1518 175.196L83.7976 175.384L83.7559 175.884H81.1309L81.0893 175.384L81.9018 175.196L81.1309 173.28L80.9851 172.884L79.5684 169.342L79.8601 169.155L78.5059 172.884L78.3601 173.259L77.6726 175.196L78.4643 175.384L78.4434 175.884H76.2559ZM78.0684 173.467V172.78C78.2351 172.795 78.4643 172.811 78.7559 172.821C79.0476 172.821 79.4018 172.821 79.8184 172.821C80.2195 172.821 80.5684 172.821 80.8601 172.821C81.1518 172.811 81.3705 172.795 81.5268 172.78V173.467C81.2351 173.467 80.9434 173.467 80.6518 173.467C80.3601 173.457 80.0789 173.446 79.8184 173.446C79.5528 173.446 79.2768 173.457 78.9851 173.467C78.7039 173.467 78.4018 173.467 78.0684 173.467Z" fill="black"/>
<path d="M86.4771 175.884L86.4355 175.384L87.2063 175.196C87.2167 175.17 87.2271 175.103 87.2271 174.988C87.2271 174.863 87.2271 174.676 87.2271 174.426C87.2375 174.165 87.248 173.811 87.248 173.363L87.2688 170.717C87.2688 170.29 87.2584 169.946 87.248 169.696C87.2323 169.446 87.2271 169.259 87.2271 169.134C87.2271 169.009 87.2167 168.941 87.2063 168.926L86.3938 168.738L86.4355 168.238H89.2063C90.0657 168.238 90.7323 168.426 91.2063 168.801C91.6907 169.176 91.9355 169.728 91.9355 170.446C91.9355 170.936 91.8105 171.358 91.5605 171.717C91.3105 172.066 90.9771 172.337 90.5605 172.53C90.1438 172.728 89.6855 172.821 89.1855 172.821C88.9771 172.821 88.7896 172.816 88.623 172.801C88.4563 172.775 88.3 172.749 88.1646 172.717V172.009C88.3573 172.082 88.524 172.129 88.6646 172.155C88.8157 172.17 88.9771 172.176 89.1438 172.176C89.6542 172.176 90.05 172.051 90.3313 171.801C90.623 171.551 90.7688 171.155 90.7688 170.613C90.7688 169.988 90.6073 169.54 90.2896 169.259C89.9667 168.967 89.5657 168.821 89.0813 168.821H88.373C88.373 168.863 88.373 168.983 88.373 169.176C88.373 169.358 88.3625 169.587 88.3521 169.863C88.3521 170.129 88.3521 170.415 88.3521 170.717L88.373 173.363C88.373 173.811 88.373 174.155 88.373 174.405C88.373 174.655 88.3782 174.842 88.3938 174.967C88.4042 175.082 88.4146 175.155 88.4146 175.196L89.498 175.363L89.4563 175.884H86.4771Z" fill="black"/>
<path d="M95.1671 175.884L95.1254 175.384L95.8962 175.196C95.9067 175.17 95.9171 175.103 95.9171 174.988C95.9171 174.863 95.9171 174.676 95.9171 174.426C95.9275 174.165 95.9379 173.811 95.9379 173.363L95.9587 170.717C95.9587 170.29 95.9483 169.946 95.9379 169.696C95.9223 169.446 95.9171 169.259 95.9171 169.134C95.9171 169.009 95.9067 168.941 95.8962 168.926L95.0837 168.738L95.1254 168.238H97.8962C98.7556 168.238 99.4223 168.426 99.8962 168.801C100.381 169.176 100.625 169.728 100.625 170.446C100.625 170.936 100.5 171.358 100.25 171.717C100 172.066 99.6671 172.337 99.2504 172.53C98.8337 172.728 98.3754 172.821 97.8754 172.821C97.6671 172.821 97.4796 172.816 97.3129 172.801C97.1462 172.775 96.99 172.749 96.8546 172.717V172.009C97.0473 172.082 97.2139 172.129 97.3546 172.155C97.5056 172.17 97.6671 172.176 97.8337 172.176C98.3442 172.176 98.74 172.051 99.0212 171.801C99.3129 171.551 99.4587 171.155 99.4587 170.613C99.4587 169.988 99.2973 169.54 98.9796 169.259C98.6567 168.967 98.2556 168.821 97.7712 168.821H97.0629C97.0629 168.863 97.0629 168.983 97.0629 169.176C97.0629 169.358 97.0525 169.587 97.0421 169.863C97.0421 170.129 97.0421 170.415 97.0421 170.717L97.0629 173.363C97.0629 173.811 97.0629 174.155 97.0629 174.405C97.0629 174.655 97.0681 174.842 97.0837 174.967C97.0942 175.082 97.1046 175.155 97.1046 175.196L98.1879 175.363L98.1462 175.884H95.1671Z" fill="black"/>
</svg>
